<svg width="225" height="270" viewBox="0 0 225 270" fill="none" xmlns="http://www.w3.org/2000/svg">
<rect width="225" height="270" rx="6" fill="#1A5FFF"/>
<path d="M112.505 88.3286V111.662" stroke="white" stroke-width="3.33333" stroke-linecap="round" stroke-linejoin="round"/>
<path d="M100.838 99.9951H124.171" stroke="white" stroke-width="3.33333" stroke-linecap="round" stroke-linejoin="round"/>
<path d="M49.9971 174.279C49.2881 174.279 48.6494 174.402 48.0811 174.648C47.5186 174.889 47.0381 175.24 46.6396 175.703C46.2471 176.16 45.9453 176.714 45.7344 177.364C45.5234 178.015 45.418 178.747 45.418 179.562C45.418 180.64 45.585 181.577 45.9189 182.374C46.2588 183.165 46.7627 183.777 47.4307 184.211C48.1045 184.645 48.9453 184.861 49.9531 184.861C50.5273 184.861 51.0664 184.814 51.5703 184.721C52.0801 184.621 52.5752 184.498 53.0557 184.352V185.652C52.5869 185.828 52.0947 185.957 51.5791 186.039C51.0635 186.127 50.4512 186.171 49.7422 186.171C48.4355 186.171 47.3428 185.901 46.4639 185.362C45.5908 184.817 44.9346 184.05 44.4951 183.06C44.0615 182.069 43.8447 180.9 43.8447 179.553C43.8447 178.58 43.9795 177.692 44.249 176.89C44.5244 176.081 44.9229 175.384 45.4443 174.798C45.9717 174.212 46.6162 173.761 47.3779 173.444C48.1455 173.122 49.0244 172.961 50.0146 172.961C50.665 172.961 51.292 173.025 51.8955 173.154C52.499 173.283 53.0439 173.468 53.5303 173.708L52.9326 174.974C52.5225 174.786 52.0713 174.625 51.5791 174.49C51.0928 174.35 50.5654 174.279 49.9971 174.279ZM59.999 176.187C60.1924 176.187 60.3945 176.198 60.6055 176.222C60.8164 176.239 61.0039 176.266 61.168 176.301L60.9834 177.654C60.8252 177.613 60.6494 177.581 60.4561 177.558C60.2627 177.534 60.0811 177.522 59.9111 177.522C59.5244 177.522 59.1582 177.602 58.8125 177.76C58.4727 177.912 58.1738 178.135 57.916 178.428C57.6582 178.715 57.4561 179.063 57.3096 179.474C57.1631 179.878 57.0898 180.329 57.0898 180.827V185.995H55.6221V176.362H56.835L56.9932 178.138H57.0547C57.2539 177.78 57.4941 177.455 57.7754 177.162C58.0566 176.863 58.3818 176.626 58.751 176.45C59.126 176.274 59.542 176.187 59.999 176.187ZM66.6963 176.187C67.5166 176.187 68.2197 176.368 68.8057 176.731C69.3916 177.095 69.8398 177.604 70.1504 178.261C70.4609 178.911 70.6162 179.673 70.6162 180.546V181.451H63.9629C63.9805 182.582 64.2617 183.443 64.8066 184.035C65.3516 184.627 66.1191 184.923 67.1094 184.923C67.7188 184.923 68.2578 184.867 68.7266 184.756C69.1953 184.645 69.6816 184.48 70.1855 184.264V185.547C69.6992 185.764 69.2158 185.922 68.7354 186.021C68.2607 186.121 67.6982 186.171 67.0479 186.171C66.1221 186.171 65.3135 185.983 64.6221 185.608C63.9365 185.228 63.4033 184.671 63.0225 183.938C62.6416 183.206 62.4512 182.31 62.4512 181.249C62.4512 180.212 62.624 179.315 62.9697 178.56C63.3213 177.798 63.8135 177.212 64.4463 176.802C65.085 176.392 65.835 176.187 66.6963 176.187ZM66.6787 177.382C65.8994 177.382 65.2783 177.637 64.8154 178.146C64.3525 178.656 64.0771 179.368 63.9893 180.282H69.0869C69.0811 179.708 68.9902 179.204 68.8145 178.771C68.6445 178.331 68.3838 177.991 68.0322 177.751C67.6807 177.505 67.2295 177.382 66.6787 177.382ZM76.6982 176.204C77.8467 176.204 78.6992 176.462 79.2559 176.978C79.8125 177.493 80.0908 178.316 80.0908 179.447V185.995H79.0273L78.7461 184.571H78.6758C78.4062 184.923 78.125 185.219 77.832 185.459C77.5391 185.693 77.1992 185.872 76.8125 185.995C76.4316 186.112 75.9629 186.171 75.4062 186.171C74.8203 186.171 74.2988 186.068 73.8418 185.863C73.3906 185.658 73.0332 185.348 72.7695 184.932C72.5117 184.516 72.3828 183.988 72.3828 183.35C72.3828 182.389 72.7637 181.65 73.5254 181.135C74.2871 180.619 75.4473 180.338 77.0059 180.291L78.667 180.221V179.632C78.667 178.8 78.4883 178.217 78.1309 177.883C77.7734 177.549 77.2695 177.382 76.6191 177.382C76.1152 177.382 75.6348 177.455 75.1777 177.602C74.7207 177.748 74.2871 177.921 73.877 178.12L73.4287 177.013C73.8623 176.79 74.3604 176.6 74.9229 176.441C75.4854 176.283 76.0771 176.204 76.6982 176.204ZM78.6494 181.249L77.1816 181.311C75.9805 181.357 75.1338 181.554 74.6416 181.899C74.1494 182.245 73.9033 182.734 73.9033 183.367C73.9033 183.918 74.0703 184.325 74.4043 184.589C74.7383 184.853 75.1807 184.984 75.7314 184.984C76.5869 184.984 77.2871 184.747 77.832 184.272C78.377 183.798 78.6494 183.086 78.6494 182.137V181.249ZM86.208 184.976C86.4482 184.976 86.6943 184.955 86.9463 184.914C87.1982 184.873 87.4033 184.823 87.5615 184.765V185.898C87.3916 185.975 87.1543 186.039 86.8496 186.092C86.5508 186.145 86.2578 186.171 85.9707 186.171C85.4609 186.171 84.998 186.083 84.582 185.907C84.166 185.726 83.832 185.421 83.5801 184.993C83.334 184.565 83.2109 183.974 83.2109 183.218V177.505H81.8398V176.793L83.2197 176.222L83.7998 174.13H84.6787V176.362H87.5V177.505H84.6787V183.174C84.6787 183.777 84.8164 184.229 85.0918 184.527C85.373 184.826 85.7451 184.976 86.208 184.976ZM93.2217 176.187C94.042 176.187 94.7451 176.368 95.3311 176.731C95.917 177.095 96.3652 177.604 96.6758 178.261C96.9863 178.911 97.1416 179.673 97.1416 180.546V181.451H90.4883C90.5059 182.582 90.7871 183.443 91.332 184.035C91.877 184.627 92.6445 184.923 93.6348 184.923C94.2441 184.923 94.7832 184.867 95.252 184.756C95.7207 184.645 96.207 184.48 96.7109 184.264V185.547C96.2246 185.764 95.7412 185.922 95.2607 186.021C94.7861 186.121 94.2236 186.171 93.5732 186.171C92.6475 186.171 91.8389 185.983 91.1475 185.608C90.4619 185.228 89.9287 184.671 89.5479 183.938C89.167 183.206 88.9766 182.31 88.9766 181.249C88.9766 180.212 89.1494 179.315 89.4951 178.56C89.8467 177.798 90.3389 177.212 90.9717 176.802C91.6104 176.392 92.3604 176.187 93.2217 176.187ZM93.2041 177.382C92.4248 177.382 91.8037 177.637 91.3408 178.146C90.8779 178.656 90.6025 179.368 90.5146 180.282H95.6123C95.6064 179.708 95.5156 179.204 95.3398 178.771C95.1699 178.331 94.9092 177.991 94.5576 177.751C94.2061 177.505 93.7549 177.382 93.2041 177.382ZM107.899 176.204C109.048 176.204 109.9 176.462 110.457 176.978C111.014 177.493 111.292 178.316 111.292 179.447V185.995H110.229L109.947 184.571H109.877C109.607 184.923 109.326 185.219 109.033 185.459C108.74 185.693 108.4 185.872 108.014 185.995C107.633 186.112 107.164 186.171 106.607 186.171C106.021 186.171 105.5 186.068 105.043 185.863C104.592 185.658 104.234 185.348 103.971 184.932C103.713 184.516 103.584 183.988 103.584 183.35C103.584 182.389 103.965 181.65 104.727 181.135C105.488 180.619 106.648 180.338 108.207 180.291L109.868 180.221V179.632C109.868 178.8 109.689 178.217 109.332 177.883C108.975 177.549 108.471 177.382 107.82 177.382C107.316 177.382 106.836 177.455 106.379 177.602C105.922 177.748 105.488 177.921 105.078 178.12L104.63 177.013C105.063 176.79 105.562 176.6 106.124 176.441C106.687 176.283 107.278 176.204 107.899 176.204ZM109.851 181.249L108.383 181.311C107.182 181.357 106.335 181.554 105.843 181.899C105.351 182.245 105.104 182.734 105.104 183.367C105.104 183.918 105.271 184.325 105.605 184.589C105.939 184.853 106.382 184.984 106.933 184.984C107.788 184.984 108.488 184.747 109.033 184.272C109.578 183.798 109.851 183.086 109.851 182.137V181.249ZM122.085 184.976C122.325 184.976 122.571 184.955 122.823 184.914C123.075 184.873 123.28 184.823 123.438 184.765V185.898C123.269 185.975 123.031 186.039 122.727 186.092C122.428 186.145 122.135 186.171 121.848 186.171C121.338 186.171 120.875 186.083 120.459 185.907C120.043 185.726 119.709 185.421 119.457 184.993C119.211 184.565 119.088 183.974 119.088 183.218V177.505H117.717V176.793L119.097 176.222L119.677 174.13H120.556V176.362H123.377V177.505H120.556V183.174C120.556 183.777 120.693 184.229 120.969 184.527C121.25 184.826 121.622 184.976 122.085 184.976ZM123.869 176.362H125.434L127.561 181.952C127.684 182.28 127.798 182.597 127.903 182.901C128.009 183.2 128.103 183.487 128.185 183.763C128.267 184.038 128.331 184.305 128.378 184.562H128.439C128.521 184.27 128.639 183.886 128.791 183.411C128.943 182.931 129.107 182.441 129.283 181.943L131.296 176.362H132.869L128.677 187.41C128.454 188.002 128.193 188.518 127.895 188.957C127.602 189.396 127.244 189.733 126.822 189.968C126.4 190.208 125.891 190.328 125.293 190.328C125.018 190.328 124.774 190.311 124.563 190.275C124.353 190.246 124.171 190.211 124.019 190.17V189.001C124.147 189.03 124.303 189.057 124.484 189.08C124.672 189.104 124.865 189.115 125.064 189.115C125.428 189.115 125.741 189.045 126.005 188.904C126.274 188.77 126.506 188.57 126.699 188.307C126.893 188.043 127.06 187.729 127.2 187.366L127.728 186.013L123.869 176.362ZM138.934 176.187C140.135 176.187 141.093 176.6 141.808 177.426C142.522 178.252 142.88 179.494 142.88 181.152C142.88 182.248 142.716 183.168 142.388 183.912C142.06 184.656 141.597 185.219 140.999 185.6C140.407 185.98 139.707 186.171 138.898 186.171C138.389 186.171 137.94 186.104 137.554 185.969C137.167 185.834 136.836 185.652 136.561 185.424C136.285 185.195 136.057 184.946 135.875 184.677H135.77C135.787 184.905 135.808 185.181 135.831 185.503C135.86 185.825 135.875 186.106 135.875 186.347V190.302H134.407V176.362H135.611L135.805 177.786H135.875C136.062 177.493 136.291 177.227 136.561 176.986C136.83 176.74 137.158 176.547 137.545 176.406C137.938 176.26 138.4 176.187 138.934 176.187ZM138.679 177.417C138.011 177.417 137.472 177.546 137.062 177.804C136.657 178.062 136.361 178.448 136.174 178.964C135.986 179.474 135.887 180.115 135.875 180.889V181.17C135.875 181.984 135.963 182.673 136.139 183.235C136.32 183.798 136.616 184.226 137.026 184.519C137.442 184.812 137.999 184.958 138.696 184.958C139.294 184.958 139.792 184.797 140.19 184.475C140.589 184.152 140.885 183.704 141.078 183.13C141.277 182.55 141.377 181.885 141.377 181.135C141.377 179.998 141.154 179.096 140.709 178.428C140.27 177.754 139.593 177.417 138.679 177.417ZM149.138 176.187C149.958 176.187 150.661 176.368 151.247 176.731C151.833 177.095 152.281 177.604 152.592 178.261C152.902 178.911 153.058 179.673 153.058 180.546V181.451H146.404C146.422 182.582 146.703 183.443 147.248 184.035C147.793 184.627 148.561 184.923 149.551 184.923C150.16 184.923 150.699 184.867 151.168 184.756C151.637 184.645 152.123 184.48 152.627 184.264V185.547C152.141 185.764 151.657 185.922 151.177 186.021C150.702 186.121 150.14 186.171 149.489 186.171C148.563 186.171 147.755 185.983 147.063 185.608C146.378 185.228 145.845 184.671 145.464 183.938C145.083 183.206 144.893 182.31 144.893 181.249C144.893 180.212 145.065 179.315 145.411 178.56C145.763 177.798 146.255 177.212 146.888 176.802C147.526 176.392 148.276 176.187 149.138 176.187ZM149.12 177.382C148.341 177.382 147.72 177.637 147.257 178.146C146.794 178.656 146.519 179.368 146.431 180.282H151.528C151.522 179.708 151.432 179.204 151.256 178.771C151.086 178.331 150.825 177.991 150.474 177.751C150.122 177.505 149.671 177.382 149.12 177.382ZM156.995 172.319V175.738C156.995 176.131 156.983 176.512 156.96 176.881C156.942 177.25 156.928 177.537 156.916 177.742H156.995C157.259 177.309 157.64 176.942 158.138 176.644C158.636 176.345 159.271 176.195 160.045 176.195C161.252 176.195 162.213 176.614 162.928 177.452C163.648 178.284 164.009 179.523 164.009 181.17C164.009 182.254 163.845 183.168 163.517 183.912C163.188 184.656 162.726 185.219 162.128 185.6C161.53 185.98 160.824 186.171 160.01 186.171C159.248 186.171 158.621 186.03 158.129 185.749C157.643 185.462 157.268 185.113 157.004 184.703H156.89L156.591 185.995H155.536V172.319H156.995ZM159.808 177.417C159.11 177.417 158.557 177.555 158.146 177.83C157.736 178.1 157.44 178.51 157.259 179.061C157.083 179.605 156.995 180.297 156.995 181.135V181.214C156.995 182.427 157.197 183.355 157.602 184C158.006 184.639 158.741 184.958 159.808 184.958C160.704 184.958 161.375 184.63 161.82 183.974C162.271 183.317 162.497 182.38 162.497 181.161C162.497 179.919 162.274 178.984 161.829 178.357C161.39 177.73 160.716 177.417 159.808 177.417ZM174.863 181.161C174.863 181.952 174.761 182.658 174.556 183.279C174.351 183.9 174.055 184.425 173.668 184.853C173.281 185.28 172.812 185.608 172.262 185.837C171.717 186.06 171.099 186.171 170.407 186.171C169.763 186.171 169.171 186.06 168.632 185.837C168.099 185.608 167.636 185.28 167.243 184.853C166.856 184.425 166.555 183.9 166.338 183.279C166.127 182.658 166.021 181.952 166.021 181.161C166.021 180.106 166.2 179.21 166.558 178.472C166.915 177.728 167.425 177.162 168.087 176.775C168.755 176.383 169.549 176.187 170.469 176.187C171.348 176.187 172.115 176.383 172.771 176.775C173.434 177.168 173.946 177.736 174.31 178.48C174.679 179.219 174.863 180.112 174.863 181.161ZM167.533 181.161C167.533 181.935 167.636 182.605 167.841 183.174C168.046 183.742 168.362 184.182 168.79 184.492C169.218 184.803 169.769 184.958 170.442 184.958C171.11 184.958 171.658 184.803 172.086 184.492C172.52 184.182 172.839 183.742 173.044 183.174C173.249 182.605 173.352 181.935 173.352 181.161C173.352 180.394 173.249 179.731 173.044 179.175C172.839 178.612 172.522 178.179 172.095 177.874C171.667 177.569 171.113 177.417 170.434 177.417C169.432 177.417 168.696 177.748 168.228 178.41C167.765 179.072 167.533 179.989 167.533 181.161ZM180.497 184.976C180.737 184.976 180.983 184.955 181.235 184.914C181.487 184.873 181.692 184.823 181.851 184.765V185.898C181.681 185.975 181.443 186.039 181.139 186.092C180.84 186.145 180.547 186.171 180.26 186.171C179.75 186.171 179.287 186.083 178.871 185.907C178.455 185.726 178.121 185.421 177.869 184.993C177.623 184.565 177.5 183.974 177.5 183.218V177.505H176.129V176.793L177.509 176.222L178.089 174.13H178.968V176.362H181.789V177.505H178.968V183.174C178.968 183.777 179.105 184.229 179.381 184.527C179.662 184.826 180.034 184.976 180.497 184.976Z" fill="white"/>
</svg>
