<svg width="190" height="237" viewBox="0 0 190 237" fill="none" xmlns="http://www.w3.org/2000/svg">
<path d="M162.648 98.8159C162.567 98.3421 162.461 97.8857 162.368 97.4211C162.275 96.9555 162.133 96.0921 161.996 95.4424C161.857 94.7922 161.64 93.7262 161.43 92.85C161.222 91.9739 161.156 91.6081 161.008 91.0028C160.785 90.1354 160.571 89.3406 160.326 88.4688C160.156 87.9171 160.022 87.3624 159.861 86.8242C159.585 85.9349 159.299 85.09 159.012 84.2455C158.856 83.8018 158.718 83.3279 158.57 82.8989C158.172 81.7963 157.742 80.7341 157.316 79.7085C157.227 79.5731 157.128 79.424 157.132 79.2253C156.631 78.0555 156.097 76.9252 155.545 75.8275C155.339 75.5153 155.141 75.2172 155.039 74.8554C154.648 74.119 154.276 73.4094 153.844 72.7003C153.592 72.3205 153.35 71.9542 153.107 71.588C152.72 71.0051 152.334 70.4221 151.956 69.8523C151.579 69.283 151.453 69.093 151.21 68.7268C150.968 68.3606 150.509 67.669 150.064 67.2029C149.618 66.7374 149.483 66.5338 149.191 66.1812C148.899 65.8281 148.394 65.3036 147.99 64.8692C147.584 64.4357 147.386 64.2546 147.071 63.956C146.756 63.657 146.242 63.1783 145.819 62.834L144.877 62.0333C144.432 61.6846 143.981 61.3588 143.503 60.9926L142.534 60.3268C142.056 60.019 141.56 59.7429 141.074 59.4799C140.586 59.2174 140.442 59.1176 140.113 58.9452C139.783 58.7732 139.017 58.4421 138.452 58.2112C138.182 58.0977 137.916 57.9614 137.631 57.8577C136.786 57.5401 135.922 57.2718 135.046 57.0531L107.262 50.0952C108.116 50.3304 108.957 50.6133 109.779 50.9445C110.064 51.0482 110.33 51.1846 110.614 51.2893C111.165 51.5289 111.729 51.7603 112.283 52.0369C112.838 52.3135 112.905 52.3861 113.234 52.558C113.563 52.7304 114.204 53.1059 114.681 53.4137C115.159 53.7219 115.331 53.8622 115.651 54.0794C115.97 54.2966 116.552 54.731 117.025 55.1202C117.498 55.5093 117.67 55.649 117.98 55.912C118.291 56.174 118.827 56.6586 119.232 57.0341C119.638 57.4091 119.85 57.64 120.151 57.9473C120.452 58.2551 120.947 58.8249 121.348 59.2817C121.748 59.738 121.928 59.9508 122.212 60.2898C122.495 60.6292 122.994 61.2935 123.372 61.8049C123.75 62.3153 123.866 62.5505 124.118 62.9304C124.369 63.3102 124.881 64.0831 125.268 64.6661C125.511 65.0323 125.753 65.3986 126.005 65.7779C126.445 66.4427 126.796 67.2059 127.185 67.9427C127.383 68.2413 127.582 68.5388 127.707 68.9055C128.258 70.0033 128.778 71.1424 129.28 72.3122L129.478 72.7866C129.903 73.8122 130.32 74.8827 130.718 75.9852L131.165 77.309C131.459 78.1676 131.746 79.0125 132.009 79.9115C132.17 80.4487 132.318 80.9951 132.473 81.5552C132.706 82.3773 132.933 83.2223 133.156 84.0891C133.303 84.6945 133.45 85.2999 133.593 85.9276C133.734 86.5559 133.974 87.6258 134.157 88.5205L134.529 90.4987C134.716 91.4874 134.888 92.4857 135.034 93.5016C135.108 93.94 135.184 94.3778 135.245 94.8253C135.475 96.3516 135.664 97.9057 135.843 99.5031L163.628 106.462C163.463 104.854 163.259 103.31 163.03 101.784C162.968 101.336 162.893 100.898 162.841 100.465L162.648 98.8159Z" fill="#6D9AFF"/>
<path d="M28.7717 223.346L28.7093 221.924C28.6348 219.923 28.5739 217.913 28.5949 215.85C28.5466 213.28 28.5393 210.682 28.573 208.057L28.6582 205.678C28.7054 203.95 28.7522 202.22 28.835 200.487C28.8881 199.417 28.964 198.351 29.0273 197.295C29.1043 195.878 29.1364 194.51 29.2952 193.038C29.454 191.566 29.4842 190.727 29.5786 189.571C29.6726 188.415 29.8314 187.003 29.94 185.72L30.3369 182.159C30.4723 180.918 30.6262 179.645 30.7699 178.417C30.9145 177.189 31.1044 175.971 31.2666 174.77L31.7863 171.128C31.9665 169.895 32.1286 168.695 32.359 167.449C32.5893 166.203 32.7291 165.057 32.9775 163.838C33.2259 162.619 33.4061 161.387 33.6457 160.155L34.3314 156.558L35.0853 152.916L35.8665 149.315L36.7105 145.691C36.9949 144.468 37.3197 143.335 37.5822 142.049L38.4846 138.484L39.4557 134.815L40.4166 131.426C40.778 130.113 41.1622 128.804 41.5465 127.496L42.5385 124.242C42.973 122.862 43.3981 121.467 43.8545 120.091L44.8777 116.973L46.4342 112.448L47.4525 109.646C48.3739 107.083 49.2958 104.52 50.2626 102.083L50.5674 101.276C50.7637 100.776 50.978 100.301 51.1601 99.8104C51.8215 98.1814 52.4824 96.5528 53.1744 94.9422L54.1631 92.6864C54.7095 91.3875 55.2345 90.0249 55.8579 88.8112L57.4962 85.3831L58.9436 82.3159L60.6369 78.9682L62.1428 76.0184L63.8892 72.753L65.4496 69.884C66.0316 68.815 66.6544 67.7781 67.2676 66.7271L68.8635 63.9716L70.7356 60.8961C71.2898 60.021 71.826 59.119 72.3759 58.2667C72.9257 57.4145 73.6889 56.2646 74.3118 55.2857L75.9739 52.7791L77.9907 49.9198L79.6752 47.5344C80.3877 46.5745 81.1143 45.6633 81.8356 44.7171C82.3937 43.9958 82.948 43.2375 83.5153 42.5299C84.8858 40.8215 86.2742 39.1398 87.6856 37.5215L88.5515 36.5572C89.6678 35.2904 90.7928 34.0369 91.9441 32.8252C93.0963 31.6125 94.4161 30.2693 95.6765 29.0435C96.9369 27.8177 97.9523 26.8715 99.0988 25.858C100.146 24.9297 101.184 24.0468 102.217 23.1862L103.241 22.3709L105.547 20.6863L106.525 20.0382C107.326 19.5071 108.101 18.9938 108.83 18.4127L109.646 17.8722C110.637 17.2152 111.602 16.5753 112.553 15.9454L113.137 15.5581C113.79 15.1258 114.482 14.7836 115.143 14.4239C116.161 13.866 117.171 13.353 118.162 12.8717L119.062 12.4308C120.334 11.8419 121.583 11.3067 122.819 10.8393L123.728 10.5294C124.642 10.1971 125.573 9.89185 126.487 9.618L127.767 9.27743C128.549 9.07099 129.327 8.88753 130.114 8.71702L131.412 8.46212C132.203 8.32819 133.002 8.20785 133.798 8.11001C134.16 8.06526 134.548 8.00272 134.919 7.97209C136.067 7.87488 137.233 7.80427 138.363 7.7974C139.515 7.79516 140.653 7.86032 141.782 7.97082C142.13 7.99396 142.474 8.03959 142.816 8.08571C143.629 8.19076 144.428 8.3053 145.21 8.45121C145.991 8.59707 146.538 8.68367 147.196 8.85208L119.412 1.89392C118.943 1.77539 118.482 1.67092 118.008 1.57547L117.425 1.49302C116.635 1.33362 115.836 1.21907 115.032 1.12756C114.788 1.11315 114.553 1.05441 114.315 1.01759L113.998 1.01272C112.869 0.902172 111.739 0.850598 110.587 0.852789C109.458 0.859705 108.306 0.920922 107.143 1.02753L106.846 1.04925C106.584 1.06673 106.299 1.13852 106.023 1.16545C105.241 1.25389 104.44 1.37477 103.636 1.51751L103.058 1.58857L102.338 1.77251C101.565 1.93352 100.787 2.11756 99.991 2.33287L99.1913 2.5116L98.7116 2.67339C97.798 2.94729 96.8794 3.24363 95.9522 3.58488C95.7481 3.72027 95.4773 3.72422 95.2333 3.82727L95.0833 3.92662C93.8346 4.40282 92.5854 4.938 91.3275 5.51813L91.1376 5.64407L90.4986 6.06753C89.4944 6.55756 88.4848 7.07063 87.4796 7.61969L86.9361 7.97984L85.533 8.81214L84.9622 9.1906C84.1197 9.74886 83.2777 10.3072 82.4074 10.8837L81.2264 11.6668L78.9345 13.2834L77.9556 13.9321L77.2489 14.4005L75.7178 15.6301L74.7072 16.4365C73.6601 17.3061 72.6233 18.1886 71.5757 19.1172C70.4288 20.1309 69.296 21.1942 68.153 22.3028C67.0105 23.4117 65.8723 24.5562 64.739 25.7367L64.4215 26.084C63.2692 27.2961 62.1442 28.5497 61.029 29.8159L60.1353 30.7987C58.7239 32.4171 57.3491 34.0895 55.9786 35.7979L55.8018 35.9153L54.2493 37.9398C53.5411 38.8773 52.8145 39.7885 52.1118 40.762C51.4075 41.7361 50.9668 42.3404 50.4179 43.1338L48.4017 45.9921C47.8338 46.8176 47.2845 47.6698 46.7346 48.5221C46.1848 49.3744 45.4168 50.4887 44.7895 51.4895C44.1627 52.4908 43.6903 53.2529 43.1454 54.1413L41.2631 57.2036L39.6681 59.9591C39.0627 61.0237 38.4535 62.0523 37.8491 63.1164L36.3028 65.9762C35.716 67.0676 35.134 68.1366 34.5564 69.2416L33.0364 72.2007L31.3441 75.5474L29.9103 78.6059C29.3731 79.7426 28.8403 80.8568 28.271 82.0344L27.8936 82.8507L26.563 85.9184L25.5885 88.165C24.896 89.7755 24.2351 91.4041 23.5738 93.0327C23.378 93.5338 23.1637 94.0072 22.9816 94.4991L22.9129 94.6617L22.6621 95.3158C21.7017 97.8 20.7647 100.321 19.852 102.878L19.4463 103.947L18.8483 105.67L17.2777 110.205C17.1043 110.769 16.8988 111.315 16.7118 111.888L16.2544 113.323L14.9478 117.488C14.7286 118.16 14.509 118.832 14.3259 119.5L13.9601 120.718L12.8439 124.64L12.1669 126.923L11.8694 128.038L10.9119 131.698L10.2661 134.175L9.99584 135.272C9.70217 136.481 9.37295 137.636 9.13772 138.904L8.52798 141.436L8.29373 142.528L7.51305 146.13C7.32896 146.974 7.13172 147.827 6.97052 148.675L6.74551 149.781L6.05931 153.378L5.44081 155.837L5.25575 156.975L4.66451 160.568L4.24471 163.091L4.0913 164.246C3.90185 165.465 3.73919 166.666 3.57214 167.889C3.43821 168.719 3.31353 169.563 3.25655 170.363L3.13041 171.5C2.97214 172.737 2.82311 173.987 2.68772 175.228L2.39892 177.743L2.29568 178.826C2.16467 180.103 2.04243 181.394 1.93821 182.654C1.87246 183.498 1.78334 184.338 1.66743 185.195L1.60071 186.157C1.50087 187.57 1.42344 188.987 1.33724 190.391C1.28464 191.226 1.20915 192.057 1.17019 192.883L1.15412 193.597C1.07084 195.33 1.01532 197.046 0.968566 198.775C0.956878 199.465 0.909154 200.16 0.861913 200.797L0.856555 201.113C0.831718 203.731 0.834639 206.332 0.864834 208.915L0.86337 209.149C0.893078 211.082 0.935938 213.006 1.00558 214.911L1.05964 216.32L1.12587 218.012C1.19454 219.178 1.27587 220.334 1.35769 221.49L1.42977 222.75C1.58172 224.601 1.75996 226.434 1.95233 228.259L2.05704 229.302L29.8416 236.26C29.6098 234.11 29.4281 231.947 29.264 229.753L29.1783 228.502C28.9898 226.772 28.8559 225.065 28.7717 223.346Z" fill="url(#paint0_linear_1_51)"/>
<path d="M29.7321 236.273C22.0762 164.564 51.5882 71.8101 95.6663 29.0889C139.743 -13.6316 181.67 9.85394 189.326 81.5635L163.656 106.385C158.462 57.714 130.004 41.7746 100.1 70.7689C70.1941 99.7637 50.1628 162.714 55.3621 211.362L29.7321 236.273Z" fill="url(#paint1_linear_1_51)"/>
<defs>
<linearGradient id="paint0_linear_1_51" x1="-7.71536" y1="32.5174" x2="79.8286" y2="124.742" gradientUnits="userSpaceOnUse">
<stop stop-color="#4C83FF"/>
<stop offset="1" stop-color="#4C83FF"/>
</linearGradient>
<linearGradient id="paint1_linear_1_51" x1="106051" y1="-9213.11" x2="99503.1" y2="-18086.4" gradientUnits="userSpaceOnUse">
<stop stop-color="#7AA1FA"/>
<stop offset="0.49" stop-color="#215CE3"/>
<stop offset="0.99" stop-color="#254898"/>
</linearGradient>
</defs>
</svg>
