<svg width="16" height="15" viewBox="0 0 16 15" fill="none" xmlns="http://www.w3.org/2000/svg">
<path d="M14.6669 10.78V12.78C14.6677 12.9657 14.6297 13.1495 14.5553 13.3196C14.4809 13.4897 14.3718 13.6424 14.235 13.7679C14.0982 13.8934 13.9367 13.989 13.7608 14.0485C13.5849 14.108 13.3985 14.1301 13.2136 14.1133C11.1622 13.8904 9.19161 13.1894 7.46028 12.0667C5.8495 11.0431 4.48384 9.67746 3.46028 8.06668C2.3336 6.32748 1.63244 4.34734 1.41361 2.28668C1.39695 2.10233 1.41886 1.91652 1.47795 1.7411C1.53703 1.56567 1.63199 1.40447 1.75679 1.26776C1.88159 1.13105 2.03348 1.02182 2.20281 0.947028C2.37213 0.872237 2.55517 0.833521 2.74028 0.833347H4.74028C5.06382 0.830163 5.37748 0.944733 5.62279 1.1557C5.8681 1.36667 6.02833 1.65964 6.07361 1.98001C6.15803 2.62006 6.31458 3.2485 6.54028 3.85335C6.62998 4.09196 6.64939 4.35129 6.59622 4.6006C6.54305 4.84991 6.41952 5.07875 6.24028 5.26001L5.39361 6.10668C6.34265 7.77571 7.72458 9.15764 9.39361 10.1067L10.2403 9.26001C10.4215 9.08077 10.6504 8.95725 10.8997 8.90408C11.149 8.85091 11.4083 8.87032 11.6469 8.96001C12.2518 9.18571 12.8802 9.34227 13.5203 9.42668C13.8441 9.47237 14.1399 9.63548 14.3513 9.88501C14.5627 10.1345 14.6751 10.4531 14.6669 10.78Z" stroke="#FFA54C" stroke-width="1.33333" stroke-linecap="round" stroke-linejoin="round"/>
</svg>
