<svg width="309" height="60" viewBox="0 0 309 60" fill="none" xmlns="http://www.w3.org/2000/svg">
<rect width="309" height="60" rx="16" fill="#18181B"/>
<path d="M63.1172 33.1133C63.1172 33.9596 62.9089 34.6888 62.4922 35.3008C62.082 35.9128 61.4896 36.3815 60.7148 36.707C59.9466 37.0326 59.0286 37.1953 57.9609 37.1953C57.4401 37.1953 56.9421 37.166 56.4668 37.1074C55.9915 37.0488 55.5423 36.9642 55.1191 36.8535C54.7025 36.7363 54.3216 36.5964 53.9766 36.4336V34.2266C54.556 34.4805 55.2038 34.7116 55.9199 34.9199C56.6361 35.1217 57.3652 35.2227 58.1074 35.2227C58.7129 35.2227 59.2142 35.1445 59.6113 34.9883C60.015 34.8255 60.3145 34.5977 60.5098 34.3047C60.7051 34.0052 60.8027 33.6569 60.8027 33.2598C60.8027 32.8366 60.6888 32.4785 60.4609 32.1855C60.2331 31.8926 59.888 31.6257 59.4258 31.3848C58.9701 31.1374 58.3971 30.8737 57.707 30.5938C57.2383 30.4049 56.7891 30.1901 56.3594 29.9492C55.9362 29.7083 55.5586 29.4251 55.2266 29.0996C54.8945 28.7741 54.6309 28.39 54.4355 27.9473C54.2467 27.498 54.1523 26.9707 54.1523 26.3652C54.1523 25.5579 54.3444 24.8678 54.7285 24.2949C55.1191 23.722 55.666 23.2826 56.3691 22.9766C57.0788 22.6706 57.9056 22.5176 58.8496 22.5176C59.5983 22.5176 60.3014 22.5957 60.959 22.752C61.623 22.9082 62.2741 23.1296 62.9121 23.416L62.1699 25.3008C61.584 25.0599 61.0143 24.8678 60.4609 24.7246C59.9141 24.5814 59.3542 24.5098 58.7812 24.5098C58.2865 24.5098 57.8665 24.5846 57.5215 24.7344C57.1764 24.8841 56.9128 25.0957 56.7305 25.3691C56.5547 25.6361 56.4668 25.9551 56.4668 26.3262C56.4668 26.7428 56.5677 27.0944 56.7695 27.3809C56.9779 27.6608 57.2969 27.918 57.7266 28.1523C58.1628 28.3867 58.7227 28.6471 59.4062 28.9336C60.194 29.2591 60.8613 29.6009 61.4082 29.959C61.9616 30.3171 62.3848 30.7467 62.6777 31.248C62.9707 31.7428 63.1172 32.3646 63.1172 33.1133ZM69.6602 35.3398C69.9596 35.3398 70.2559 35.3138 70.5488 35.2617C70.8418 35.2031 71.1087 35.1348 71.3496 35.0566V36.7949C71.0957 36.9056 70.7669 37 70.3633 37.0781C69.9596 37.1562 69.5397 37.1953 69.1035 37.1953C68.4915 37.1953 67.9414 37.0944 67.4531 36.8926C66.9648 36.6842 66.5775 36.3294 66.291 35.8281C66.0046 35.3268 65.8613 34.6335 65.8613 33.748V27.9375H64.3867V26.9121L65.9688 26.1016L66.7207 23.7871H68.166V26.1895H71.2617V27.9375H68.166V33.7188C68.166 34.2656 68.3027 34.6725 68.5762 34.9395C68.8496 35.2064 69.2109 35.3398 69.6602 35.3398ZM77.7852 25.9844C79.1523 25.9844 80.1842 26.2871 80.8809 26.8926C81.584 27.498 81.9355 28.4421 81.9355 29.7246V37H80.3047L79.8652 35.4668H79.7871C79.4811 35.8574 79.1654 36.1797 78.8398 36.4336C78.5143 36.6875 78.1367 36.8763 77.707 37C77.2839 37.1302 76.7663 37.1953 76.1543 37.1953C75.5098 37.1953 74.9336 37.0781 74.4258 36.8438C73.918 36.6029 73.5176 36.2383 73.2246 35.75C72.9316 35.2617 72.7852 34.6432 72.7852 33.8945C72.7852 32.7812 73.1986 31.9447 74.0254 31.3848C74.8587 30.8249 76.1152 30.5156 77.7949 30.457L79.6699 30.3887V29.8223C79.6699 29.0736 79.4941 28.5397 79.1426 28.2207C78.7975 27.9017 78.3092 27.7422 77.6777 27.7422C77.1374 27.7422 76.6133 27.8203 76.1055 27.9766C75.5977 28.1328 75.1029 28.3249 74.6211 28.5527L73.8789 26.9316C74.4062 26.6517 75.0052 26.4238 75.6758 26.248C76.3529 26.0723 77.056 25.9844 77.7852 25.9844ZM79.6602 31.834L78.2637 31.8828C77.1178 31.9219 76.3138 32.1172 75.8516 32.4688C75.3893 32.8203 75.1582 33.3021 75.1582 33.9141C75.1582 34.4479 75.3177 34.8385 75.6367 35.0859C75.9557 35.3268 76.3757 35.4473 76.8965 35.4473C77.6908 35.4473 78.3483 35.2227 78.8691 34.7734C79.3965 34.3177 79.6602 33.6504 79.6602 32.7715V31.834ZM90.627 25.9844C90.8092 25.9844 91.0078 25.9941 91.2227 26.0137C91.4375 26.0332 91.623 26.0592 91.7793 26.0918L91.5645 28.2402C91.4277 28.2012 91.2585 28.1719 91.0566 28.1523C90.8613 28.1328 90.6855 28.123 90.5293 28.123C90.1191 28.123 89.7285 28.1914 89.3574 28.3281C88.9863 28.4583 88.6576 28.6602 88.3711 28.9336C88.0846 29.2005 87.86 29.5358 87.6973 29.9395C87.5345 30.3431 87.4531 30.8118 87.4531 31.3457V37H85.1484V26.1895H86.9453L87.2578 28.0938H87.3652C87.5801 27.7096 87.847 27.3581 88.166 27.0391C88.485 26.7201 88.8496 26.4661 89.2598 26.2773C89.6764 26.082 90.1322 25.9844 90.627 25.9844ZM97.8047 35.3398C98.1042 35.3398 98.4004 35.3138 98.6934 35.2617C98.9863 35.2031 99.2533 35.1348 99.4941 35.0566V36.7949C99.2402 36.9056 98.9115 37 98.5078 37.0781C98.1042 37.1562 97.6842 37.1953 97.248 37.1953C96.6361 37.1953 96.0859 37.0944 95.5977 36.8926C95.1094 36.6842 94.722 36.3294 94.4355 35.8281C94.1491 35.3268 94.0059 34.6335 94.0059 33.748V27.9375H92.5312V26.9121L94.1133 26.1016L94.8652 23.7871H96.3105V26.1895H99.4062V27.9375H96.3105V33.7188C96.3105 34.2656 96.4473 34.6725 96.7207 34.9395C96.9941 35.2064 97.3555 35.3398 97.8047 35.3398Z" fill="white"/>
<path d="M23 20V41H25.625V20H23ZM28.25 20V30.5H33.5V33.125H44L38.75 27.9538L44 22.625H36.125V20H28.25Z" fill="white"/>
</svg>
